<?xml version="1.0" encoding="UTF-8"?><svg id="Layer_2" xmlns="http://www.w3.org/2000/svg" viewBox="0 0 599.98 249.43"><defs><style>.cls-1{letter-spacing:-.02em;}.cls-2{stroke-dasharray:0 0 .98 1.48;}.cls-2,.cls-3,.cls-4,.cls-5,.cls-6,.cls-7,.cls-8,.cls-9,.cls-10,.cls-11,.cls-12,.cls-13,.cls-14,.cls-15{stroke-width:.5px;}.cls-2,.cls-3,.cls-4,.cls-5,.cls-6,.cls-7,.cls-9,.cls-10,.cls-11,.cls-12,.cls-14{fill:none;}.cls-2,.cls-3,.cls-6,.cls-7,.cls-9,.cls-10,.cls-11,.cls-12,.cls-13,.cls-14{stroke-miterlimit:10;}.cls-2,.cls-3,.cls-7,.cls-10,.cls-11,.cls-14{stroke:#000;}.cls-16{fill:#666;}.cls-16,.cls-17,.cls-18,.cls-19,.cls-20,.cls-21,.cls-22{stroke-width:0px;}.cls-23{font-size:8px;}.cls-23,.cls-24{font-family:HelveticaNeue, 'Helvetica Neue';}.cls-23,.cls-18,.cls-8,.cls-22,.cls-13{fill:#000;}.cls-3{stroke-dasharray:0 0 1.04 1.56;}.cls-17{fill:#333;}.cls-4,.cls-6,.cls-8,.cls-13,.cls-15{stroke:#333;}.cls-4,.cls-8,.cls-15{stroke-linejoin:round;}.cls-25{letter-spacing:-.02em;}.cls-26{letter-spacing:-.05em;}.cls-24{font-size:10px;}.cls-24,.cls-20,.cls-21,.cls-15{fill:#fff;}.cls-5{stroke-linejoin:bevel;}.cls-5,.cls-9{stroke:gray;}.cls-7{stroke-dasharray:0 0 1.01 1.52;}.cls-27{letter-spacing:-.11em;}.cls-19{fill:#e6e6e6;}.cls-11{stroke-dasharray:0 0 1.03 1.55;}.cls-20,.cls-22{fill-rule:evenodd;}.cls-12{stroke:#ccc;}.cls-14{stroke-dasharray:0 0 1.01 1.52;}</style></defs><g id="Layer_1-2"><rect class="cls-19" width="599.98" height="205.43"/><path class="cls-21" d="M0,60.05s4.42-1.28,21.86-4.25,37.01-9.36,43.81-9.78,19.99-6.38,28.5-4.25,14.89-8.93,19.14-10.63,7.23-5.96,24.25-5.96,46.37-7.23,68.91-6.81,41.69,4.68,52.32,3.83,30.63-2.59,48.49-3.85,40.84,3.42,57.43,6.82c16.59,3.4,83.8,2.13,108.9,2.13s68.49.85,80.82,3.83c12.34,2.98,45.54,12.76,45.54,12.76v205.55H0V60.05Z"/><polygon class="cls-18" points="224.05 98.19 251.95 99.04 251.95 86.62 268.53 86.62 268.53 99.04 297.01 97.16 297.01 190.91 268.53 191.89 251.56 191.89 224.05 191.89 224.05 98.19"/><path class="cls-13" d="M312.27,33.62c30.94,2.36,50.58,19.27,50.03,50.11-.55,30.85-29.85,45.06-48.43,45.82-13.69.56-34.72-4.02-45.59-21.88l-.16-21.05-6.56-.25c-.11-1.09-.19-2.2-.24-3.33-1.61-33.7,27.55-51.19,50.95-49.41Z"/><path class="cls-16" d="M520.63,42.4c26.99-.77,39.44,13,43.4,28.13,3.96,15.12,8.76,27.99-15.83,43.96-24.59,15.97-52.86,5.33-59.65-2.7-6.78-8.04-15.26-20.62-5.65-41.68,9.61-21.06,27.84-27.42,37.73-27.7Z"/><path class="cls-16" d="M156.52,43.38c26.24,3.11,42.09,16.55,40.22,39.65-1.88,23.1-18.59,38.11-42.63,36.57-24.04-1.53-39.33-17.39-39.28-39.05.05-21.66,12.89-40.58,41.69-37.17Z"/><polygon class="cls-16" points="110.46 62.58 110.46 76.92 97.53 76.92 97.53 96.17 103.36 96.17 103.36 86.54 115.45 86.54 115.45 62.58 110.46 62.58"/><path class="cls-18" d="M123.13,64.03c3.35,0,6.99,2.14,9.35,4.9s4.73,5.42,12.01,5.42h22.45v-3.05h-21.91s-5.76.39-9.11-3.15c-2.92-3.09-3.64-4.11-3.64-4.11h-9.16Z"/><rect class="cls-18" x="157.49" y="63.72" width="3.37" height="13.89"/><polygon class="cls-18" points="463.49 154.42 459.52 154.42 454.52 61.37 458.49 61.37 463.49 154.42"/><polygon class="cls-18" points="197.37 63.42 197.37 71.76 203.53 78.03 206.45 75.22 200.83 70.72 200.83 62.13 197.37 63.42"/><path class="cls-18" d="M232.26,63.17s8.33,5.63,9.21,14.86c.88,9.23-4.76,0-4.76,0,0,0-3.26-14.89-18.34-14.77"/><polygon class="cls-18" points="215.19 72.26 206.27 72.26 199.96 78.57 199.96 87.49 206.27 93.8 215.19 93.8 221.5 87.49 221.5 78.57 215.19 72.26"/><polygon class="cls-18" points="417.93 70.34 409.01 70.34 402.7 76.65 402.7 85.57 409.01 91.88 417.93 91.88 424.24 85.57 424.24 76.65 417.93 70.34"/><polygon class="cls-18" points="221.5 78.57 233.03 79.85 233.03 84.07 220.7 85.61 220.7 83.64 231.24 82.13 231.15 81.47 220.32 80.45 221.5 78.57"/><polygon class="cls-5" points="103.6 77.21 103.6 81.74 107.04 77.21 103.6 77.21"/><polygon class="cls-5" points="103.6 81.74 103.6 86.26 107.04 81.74 103.6 81.74"/><polygon class="cls-5" points="107.04 86.26 107.04 81.74 103.6 86.26 107.04 86.26"/><polygon class="cls-5" points="107.04 81.74 107.04 77.21 103.6 81.74 107.04 81.74"/><rect class="cls-18" x="411.96" y="60.48" width="3.13" height="11.91"/><polygon class="cls-18" points="407.19 74.18 384.26 75.82 384.26 60.48 380.39 60.48 380.39 91.01 409.01 91.88 407.19 74.18"/><ellipse class="cls-9" cx="148.46" cy="84.73" rx="5.02" ry="7.62"/><ellipse class="cls-9" cx="159.17" cy="84.73" rx="5.02" ry="7.62"/><path class="cls-20" d="M147.11,83.2c-.03-.3.1-.72.41-1.01.35-.32.67-.35,1.15-.35.22,0,.82.17.97.33.12.13.17.24.16.41-.02.21-.28.46-.53.68-.54.48-.68,1.41-.68,1.41,0,0-.06.14-.25.14-.09,0-.18-.08-.18-.08,0,0-1-.99-1.06-1.53ZM145.62,85.97c.28.31.7.45,1.01.41.54-.06,1.53-1.06,1.53-1.06,0,0,.08-.09.08-.18,0-.19-.14-.25-.14-.25,0,0-.93-.14-1.41-.68-.22-.25-.47-.52-.68-.53-.17-.01-.28.04-.41.16-.16.15-.33.75-.33.97,0,.48.03.8.35,1.15ZM150.29,83.69c.3-.03.72.1,1.01.41.32.35.35.67.35,1.15,0,.22-.17.82-.33.97-.13.12-.24.17-.41.16-.21-.02-.46-.28-.68-.53-.48-.54-1.41-.68-1.41-.68,0,0-.14-.06-.14-.25,0-.09.08-.18.08-.18,0,0,.99-1,1.53-1.06ZM149.8,86.82c.03.31-.1.74-.41,1.04-.35.32-.67.36-1.15.36-.22,0-.82-.17-.97-.34-.12-.13-.17-.25-.16-.42.02-.21.28-.47.53-.7.54-.49.68-1.45.68-1.45,0,0,.06-.14.25-.14.09,0,.18.08.18.08,0,0,1,1.02,1.06,1.58Z"/><path class="cls-20" d="M157.83,83.2c-.03-.3.1-.72.41-1.01.35-.32.67-.35,1.15-.35.22,0,.82.17.97.33.12.13.17.24.16.41-.02.21-.28.46-.53.68-.54.48-.68,1.41-.68,1.41,0,0-.06.14-.25.14-.09,0-.18-.08-.18-.08,0,0-1-.99-1.06-1.53ZM156.34,85.97c.28.31.7.45,1.01.41.54-.06,1.53-1.06,1.53-1.06,0,0,.08-.09.08-.18,0-.19-.14-.25-.14-.25,0,0-.93-.14-1.41-.68-.22-.25-.47-.52-.68-.53-.17-.01-.28.04-.41.16-.16.15-.33.75-.33.97,0,.48.03.8.35,1.15ZM161,83.69c.3-.03.72.1,1.01.41.32.35.35.67.35,1.15,0,.22-.17.82-.33.97-.13.12-.24.17-.41.16-.21-.02-.46-.28-.68-.53-.48-.54-1.41-.68-1.41-.68,0,0-.14-.06-.14-.25,0-.09.08-.18.08-.18,0,0,.99-1,1.53-1.06ZM160.52,86.82c.03.31-.1.74-.41,1.04-.35.32-.67.36-1.15.36-.22,0-.82-.17-.97-.34-.12-.13-.17-.25-.16-.42.02-.21.28-.47.53-.7.54-.49.68-1.45.68-1.45,0,0,.06-.14.25-.14.09,0,.18.08.18.08,0,0,1,1.02,1.06,1.58Z"/><ellipse class="cls-9" cx="517.55" cy="84.73" rx="5.02" ry="7.62"/><ellipse class="cls-9" cx="528.27" cy="84.73" rx="5.02" ry="7.62"/><path class="cls-20" d="M516.21,83.2c-.03-.3.1-.72.41-1.01.35-.32.67-.35,1.15-.35.22,0,.82.17.97.33.12.13.17.24.16.41-.02.21-.28.46-.53.68-.54.48-.68,1.41-.68,1.41,0,0-.06.14-.25.14-.09,0-.18-.08-.18-.08,0,0-1-.99-1.06-1.53ZM514.72,85.97c.28.31.7.45,1.01.41.54-.06,1.53-1.06,1.53-1.06,0,0,.08-.09.08-.18,0-.19-.14-.25-.14-.25,0,0-.93-.14-1.41-.68-.22-.25-.47-.52-.68-.53-.17-.01-.28.04-.41.16-.16.15-.33.75-.33.97,0,.48.03.8.35,1.15ZM519.38,83.69c.3-.03.72.1,1.01.41.32.35.35.67.35,1.15,0,.22-.17.82-.33.97-.13.12-.24.17-.41.16-.21-.02-.46-.28-.68-.53-.48-.54-1.41-.68-1.41-.68,0,0-.14-.06-.14-.25,0-.09.08-.18.08-.18,0,0,.99-1,1.53-1.06ZM518.9,86.82c.03.31-.1.74-.41,1.04-.35.32-.67.36-1.15.36-.22,0-.82-.17-.97-.34-.12-.13-.17-.25-.16-.42.02-.21.28-.47.53-.7.54-.49.68-1.45.68-1.45,0,0,.06-.14.25-.14.09,0,.18.08.18.08,0,0,1,1.02,1.06,1.58Z"/><path class="cls-20" d="M526.92,83.2c-.03-.3.1-.72.41-1.01.35-.32.67-.35,1.15-.35.22,0,.82.17.97.33.12.13.17.24.16.41-.02.21-.28.46-.53.68-.54.48-.68,1.41-.68,1.41,0,0-.06.14-.25.14-.09,0-.18-.08-.18-.08,0,0-1-.99-1.06-1.53ZM525.43,85.97c.28.31.7.45,1.01.41.54-.06,1.53-1.06,1.53-1.06,0,0,.08-.09.08-.18,0-.19-.14-.25-.14-.25,0,0-.93-.14-1.41-.68-.22-.25-.47-.52-.68-.53-.17-.01-.28.04-.41.16-.16.15-.33.75-.33.97,0,.48.03.8.35,1.15ZM530.1,83.69c.3-.03.72.1,1.01.41.32.35.35.67.35,1.15,0,.22-.17.82-.33.97-.13.12-.24.17-.41.16-.21-.02-.46-.28-.68-.53-.48-.54-1.41-.68-1.41-.68,0,0-.14-.06-.14-.25,0-.09.08-.18.08-.18,0,0,.99-1,1.53-1.06ZM529.61,86.82c.03.31-.1.74-.41,1.04-.35.32-.67.36-1.15.36-.22,0-.82-.17-.97-.34-.12-.13-.17-.25-.16-.42.02-.21.28-.47.53-.7.54-.49.68-1.45.68-1.45,0,0,.06-.14.25-.14.09,0,.18.08.18.08,0,0,1,1.02,1.06,1.58Z"/><path class="cls-17" d="M305.21,72.17c3.79,0,7.32,1.62,9.67,4.45l.19.23.29-.06c.6-.12,1.21-.18,1.81-.18,4.81,0,8.72,3.7,8.72,8.26s-3.91,8.26-8.72,8.26c-1.2,0-2.37-.23-3.47-.69l-.27-.11-.23.19c-2.23,1.8-5.06,2.79-7.99,2.79-6.77,0-12.28-5.19-12.28-11.56s5.51-11.56,12.28-11.56M305.21,71.67c-7.06,0-12.78,5.4-12.78,12.06s5.72,12.06,12.78,12.06c3.17,0,6.07-1.09,8.3-2.9,1.12.46,2.36.72,3.66.72,5.09,0,9.22-3.92,9.22-8.76s-4.13-8.76-9.22-8.76c-.65,0-1.29.07-1.91.19-2.34-2.81-5.97-4.63-10.05-4.63h0Z"/><path class="cls-20" d="M302.75,80.04c-.03-.3.1-.72.41-1.01.35-.32.67-.35,1.15-.35.22,0,.82.17.97.33.12.13.17.24.16.41-.02.21-.28.46-.53.68-.54.48-.68,1.41-.68,1.41,0,0-.06.14-.25.14-.09,0-.18-.08-.18-.08,0,0-1-.99-1.06-1.53ZM301.26,82.81c.28.31.7.45,1.01.41.54-.06,1.53-1.06,1.53-1.06,0,0,.08-.09.08-.18,0-.19-.14-.25-.14-.25,0,0-.93-.14-1.41-.68-.22-.25-.47-.52-.68-.53-.17-.01-.28.04-.41.16-.16.15-.33.75-.33.97,0,.48.03.8.35,1.15ZM305.93,80.53c.3-.03.72.1,1.01.41.32.35.35.67.35,1.15,0,.22-.17.82-.33.97-.13.12-.24.17-.41.16-.21-.02-.46-.28-.68-.53-.48-.54-1.41-.68-1.41-.68,0,0-.14-.06-.14-.25,0-.09.08-.18.08-.18,0,0,.99-1,1.53-1.06ZM305.44,83.66c.03.31-.1.74-.41,1.04-.35.32-.67.36-1.15.36-.22,0-.82-.17-.97-.34-.12-.13-.17-.25-.16-.42.02-.21.28-.47.53-.7.54-.49.68-1.45.68-1.45,0,0,.06-.14.25-.14.09,0,.18.08.18.08,0,0,1,1.02,1.06,1.58Z"/><path class="cls-20" d="M313.46,80.04c-.03-.3.1-.72.41-1.01.35-.32.67-.35,1.15-.35.22,0,.82.17.97.33.12.13.17.24.16.41-.02.21-.28.46-.53.68-.54.48-.68,1.41-.68,1.41,0,0-.06.14-.25.14-.09,0-.18-.08-.18-.08,0,0-1-.99-1.06-1.53ZM311.97,82.81c.28.31.7.45,1.01.41.54-.06,1.53-1.06,1.53-1.06,0,0,.08-.09.08-.18,0-.19-.14-.25-.14-.25,0,0-.93-.14-1.41-.68-.22-.25-.47-.52-.68-.53-.17-.01-.28.04-.41.16-.16.15-.33.75-.33.97,0,.48.03.8.35,1.15ZM316.64,80.53c.3-.03.72.1,1.01.41.32.35.35.67.35,1.15,0,.22-.17.82-.33.97-.13.12-.24.17-.41.16-.21-.02-.46-.28-.68-.53-.48-.54-1.41-.68-1.41-.68,0,0-.14-.06-.14-.25,0-.09.08-.18.08-.18,0,0,.99-1,1.53-1.06ZM316.16,83.66c.03.31-.1.74-.41,1.04-.35.32-.67.36-1.15.36-.22,0-.82-.17-.97-.34-.12-.13-.17-.25-.16-.42.02-.21.28-.47.53-.7.54-.49.68-1.45.68-1.45,0,0,.06-.14.25-.14.09,0,.18.08.18.08,0,0,1,1.02,1.06,1.58Z"/><rect class="cls-18" x="249.5" y="61.47" width="3.39" height="25.15"/><rect class="cls-18" x="279.45" y="61.47" width="3.39" height="27.91"/><rect class="cls-18" x="362.3" y="76.65" width="11.18" height="18.56"/><path class="cls-17" d="M268.03,87.12v104.27h-15.96l.38-104.27h1.95l-.51,101.08v.51s.51,0,.51,0l11.06-.16h.49v-101.42h2.08M268.53,86.62h-3.08v101.42l-11.06.16.51-101.58h-2.95l-.39,105.27h16.97v-105.27h0Z"/><line class="cls-6" x1="224.26" y1="181.46" x2="233.42" y2="191.69"/><line class="cls-10" x1="328.1" y1="126.36" x2="328.08" y2="126.86"/><line class="cls-14" x1="328.04" y1="128.38" x2="326.42" y2="188.31"/><polyline class="cls-10" points="326.4 189.07 326.39 189.57 326.89 189.56"/><line class="cls-2" x1="328.36" y1="189.53" x2="403.89" y2="188.22"/><polyline class="cls-10" points="404.63 188.21 405.13 188.2 405.14 187.7"/><line class="cls-7" x1="405.18" y1="186.18" x2="407.11" y2="100.91"/><polyline class="cls-10" points="407.12 100.15 407.13 99.65 406.63 99.63"/><line class="cls-3" x1="405.08" y1="99.57" x2="374.76" y2="98.38"/><line class="cls-10" x1="373.98" y1="98.35" x2="373.48" y2="98.33"/><path class="cls-17" d="M305.21,68.87v.5c7.86,0,10.87,4.04,10.89,4.08l.15.21h.26s.13,0,.13,0c8.63,0,10.86,5.74,10.95,5.98l.12.34h.36s3.47-.12,3.47-.12v1.52l-5.34.11c-2.29-5.05-6.85-5.81-9.4-5.81-.57,0-1.03.04-1.31.07-.79-1.01-4.01-4.59-10.29-4.59-9.12,0-12.1,7.12-12.69,8.85h-5.16v-2.13h4.48l.11-.36c1.2-4.06,6.14-8.16,13.26-8.16v-.5M305.21,68.87c-7.24,0-12.45,4.17-13.74,8.52h-4.61v3.13h6.02s2.26-8.85,12.32-8.85c6.98,0,10.06,4.63,10.06,4.63,0,0,.6-.11,1.53-.11,2.39,0,6.94.72,9.08,5.82l6.16-.13v-2.52l-3.98.12s-2.3-6.31-11.42-6.31c-.04,0-.09,0-.13,0,0,0-3.05-4.29-11.3-4.29h0Z"/><path class="cls-18" d="M49.77,0l31.74,48.78s9.2,15.25,28.58,15.25c21.99,0,352-2.37,352-2.37v-4.02l-352.14,2.37c-5.09,0-18.17-3.12-24.95-13.51C75.32,31.69,54.93,0,54.93,0h-5.16Z"/><rect class="cls-18" x="146.18" y="69.44" width="4.56" height="8.43"/><rect class="cls-18" x="156.52" y="69.18" width="5.31" height="9"/><polygon class="cls-13" points="362.3 76.65 332.04 76.18 332.04 87.12 358.21 87.12 358.21 120.01 364.7 120.01 364.7 126.66 359.85 126.66 359.85 135.86 364.7 135.86 364.7 155.34 359.21 155.34 359.21 157.78 364.7 157.78 364.7 188.2 366.67 188.2 366.67 157.78 373.48 157.78 373.48 155.34 366.67 155.34 366.67 136.73 373.48 136.73 373.48 133.16 366.67 133.16 366.67 126.66 373.48 126.66 373.48 120.01 373.48 117.47 373.48 76.65 362.3 76.65"/><rect class="cls-18" x="367.71" y="76.4" width="14.49" height="7.33"/><path class="cls-18" d="M345.23,61.25s17.31,6,20.49,16.05h4.72s-3.69-11.41-12.11-15.11l-13.11-.94Z"/><rect class="cls-16" x="462.08" y="57.64" width="34.46" height="4.09"/><text class="cls-23" transform="translate(173.94 228.33)"><tspan class="cls-25" x="0" y="0">V</tspan><tspan x="4.74" y="0">istor access a</tspan><tspan class="cls-1" x="54.22" y="0">r</tspan><tspan x="56.74" y="0">eas</tspan></text><rect class="cls-18" x="163.29" y="221.37" width="7.71" height="7.71"/><text class="cls-23" transform="translate(130.38 228.33)"><tspan x="0" y="0">Soil</tspan></text><rect class="cls-19" x="119.73" y="221.37" width="7.71" height="7.71"/><text class="cls-23" transform="translate(56.11 228.33)"><tspan x="0" y="0">Salt deposit</tspan></text><rect class="cls-12" x="45.46" y="221.37" width="7.71" height="7.71"/><text class="cls-23" transform="translate(274.03 228.33)"><tspan x="0" y="0">Restricted a</tspan><tspan class="cls-1" x="43.11" y="0">r</tspan><tspan x="45.63" y="0">eas</tspan></text><rect class="cls-16" x="263.32" y="221.37" width="7.71" height="7.71"/><text class="cls-23" transform="translate(359.87 228.33)"><tspan x="0" y="0">Planned mine</tspan></text><polyline class="cls-10" points="356.87 228.57 356.87 229.07 356.37 229.07"/><line class="cls-11" x1="354.83" y1="229.07" x2="350.44" y2="229.07"/><polyline class="cls-10" points="349.67 229.07 349.17 229.07 349.17 228.57"/><line class="cls-11" x1="349.17" y1="227.03" x2="349.17" y2="222.64"/><polyline class="cls-10" points="349.17 221.87 349.17 221.37 349.67 221.37"/><line class="cls-11" x1="351.21" y1="221.37" x2="355.6" y2="221.37"/><polyline class="cls-10" points="356.37 221.37 356.87 221.37 356.87 221.87"/><line class="cls-11" x1="356.87" y1="223.41" x2="356.87" y2="227.8"/><text class="cls-23" transform="translate(504.28 228.33)"><tspan class="cls-26" x="0" y="0">V</tspan><tspan x="4.45" y="0">entilation fan</tspan></text><rect class="cls-21" x="493.58" y="221.37" width="7.71" height="7.71"/><path class="cls-22" d="M495.8,223c-.04-.37.12-.87.5-1.22.42-.38.81-.42,1.39-.42.27,0,.99.2,1.18.4.15.15.21.29.19.5-.02.25-.34.56-.65.82-.66.58-.82,1.7-.82,1.7,0,0-.07.17-.3.17-.11,0-.21-.09-.21-.09,0,0-1.21-1.2-1.29-1.86ZM494,226.35c.34.38.85.54,1.22.5.66-.07,1.86-1.29,1.86-1.29,0,0,.09-.1.09-.21,0-.23-.17-.3-.17-.3,0,0-1.12-.16-1.7-.82-.27-.3-.57-.63-.82-.65-.2-.02-.34.05-.5.19-.2.19-.4.91-.4,1.18,0,.58.04.97.42,1.39ZM499.65,223.59c.37-.04.87.12,1.22.5.38.42.42.81.42,1.39,0,.27-.2.99-.4,1.18-.15.15-.29.21-.5.19-.25-.02-.56-.34-.82-.65-.58-.66-1.7-.82-1.7-.82,0,0-.17-.07-.17-.3,0-.11.09-.21.09-.21,0,0,1.2-1.21,1.86-1.29ZM499.06,227.39c.04.38-.12.9-.5,1.25-.42.39-.81.43-1.39.43-.27,0-.99-.21-1.18-.41-.15-.16-.21-.3-.19-.51.02-.26.34-.57.65-.85.66-.6.82-1.75.82-1.75,0,0,.07-.17.3-.17.11,0,.21.1.21.1,0,0,1.21,1.24,1.29,1.91Z"/><text class="cls-23" transform="translate(440.38 228.07)"><tspan x="0" y="0">Stai</tspan><tspan class="cls-25" x="13.78" y="0">r</tspan><tspan x="16.3" y="0">case</tspan></text><polygon class="cls-15" points="429.76 221.1 429.76 224.96 437.29 221.1 429.76 221.1"/><polygon class="cls-15" points="429.76 224.96 429.76 228.81 437.29 224.96 429.76 224.96"/><polygon class="cls-15" points="437.29 228.81 437.29 224.96 429.76 228.81 437.29 228.81"/><polygon class="cls-15" points="437.29 224.96 437.29 221.1 429.76 224.96 437.29 224.96"/><polygon class="cls-13" points="276.83 76.11 276.83 78.03 262.24 78.03 262.24 74.04 255.27 74.04 255.27 78.03 246.67 78.03 246.67 78.01 231.11 78.01 231.11 88.63 238.4 88.63 238.4 95.22 246.67 95.22 246.67 86.62 255.27 86.62 262.24 86.62 276.83 86.62 286.86 86.62 286.86 78.03 286.86 76.11 276.83 76.11"/><polygon class="cls-4" points="249.48 80.03 249.48 82.33 252.92 80.03 249.48 80.03"/><polygon class="cls-4" points="249.48 82.33 249.48 84.63 252.92 82.33 249.48 82.33"/><polygon class="cls-4" points="252.92 84.63 252.92 82.33 249.48 84.63 252.92 84.63"/><polygon class="cls-4" points="252.92 82.33 252.92 80.03 249.48 82.33 252.92 82.33"/><polygon class="cls-4" points="255.19 73.96 255.19 76 262.24 73.96 255.19 73.96"/><polygon class="cls-4" points="255.19 76 255.19 78.03 262.24 76 255.19 76"/><polygon class="cls-4" points="262.24 78.03 262.24 76 255.19 78.03 262.24 78.03"/><polygon class="cls-4" points="262.24 76 262.24 73.96 255.19 76 262.24 76"/><polygon class="cls-4" points="276.02 79.83 276.02 82.13 282.88 79.83 276.02 79.83"/><polygon class="cls-4" points="276.02 82.13 276.02 84.43 282.88 82.13 276.02 82.13"/><polygon class="cls-4" points="282.88 84.43 282.88 82.13 276.02 84.43 282.88 84.43"/><polygon class="cls-4" points="282.88 82.13 282.88 79.83 276.02 82.13 282.88 82.13"/><polygon class="cls-8" points="255.15 191.69 255.15 193.99 265.88 191.69 255.15 191.69"/><polygon class="cls-8" points="255.15 193.99 255.15 196.29 265.88 193.99 255.15 193.99"/><polygon class="cls-8" points="265.88 196.29 265.88 193.99 255.15 196.29 265.88 196.29"/><polygon class="cls-8" points="265.88 193.99 265.88 191.69 255.15 193.99 265.88 193.99"/><polygon class="cls-4" points="362.3 80.98 362.3 83.28 369.16 80.98 362.3 80.98"/><polygon class="cls-4" points="362.3 83.28 362.3 85.58 369.16 83.28 362.3 83.28"/><polygon class="cls-4" points="369.16 85.58 369.16 83.28 362.3 85.58 369.16 85.58"/><polygon class="cls-4" points="369.16 83.28 369.16 80.98 362.3 83.28 369.16 83.28"/><text class="cls-24" transform="translate(132.58 106.4)"><tspan x="0" y="0">Mina Iosif</tspan></text><text class="cls-24" transform="translate(281.68 106.62)"><tspan x="0" y="0">Mina </tspan><tspan class="cls-27" x="24.64" y="0">T</tspan><tspan x="29.27" y="0">e</tspan><tspan class="cls-1" x="34.64" y="0">r</tspan><tspan x="37.79" y="0">ezia</tspan></text><text class="cls-24" transform="translate(494.68 106.51)"><tspan x="0" y="0">Mina Anton</tspan></text><text class="cls-24" transform="translate(233.09 143.95)"><tspan x="0" y="0">Mina Rudolf</tspan></text><text class="cls-23" transform="translate(21.42 11.24)"><tspan x="0" y="0">Old Exit</tspan></text><text class="cls-23" transform="translate(446.24 163.86)"><tspan x="0" y="0">New Exit</tspan></text></g></svg>