<?xml version="1.0" encoding="UTF-8"?><svg id="Layer_2" xmlns="http://www.w3.org/2000/svg" viewBox="0 0 599.98 213.6"><defs><style>.cls-1{letter-spacing:-.02em;}.cls-2{stroke-dasharray:0 0 1.02 1.53;}.cls-2,.cls-3,.cls-4,.cls-5,.cls-6,.cls-7,.cls-8,.cls-9,.cls-10,.cls-11{stroke-width:.5px;}.cls-2,.cls-3,.cls-5,.cls-6,.cls-7,.cls-8{stroke:#000;}.cls-2,.cls-3,.cls-5,.cls-6,.cls-7,.cls-8,.cls-9{fill:none;}.cls-2,.cls-3,.cls-5,.cls-6,.cls-7,.cls-8,.cls-9,.cls-10{stroke-miterlimit:10;}.cls-12{fill:#666;}.cls-12,.cls-13,.cls-14,.cls-15,.cls-16{stroke-width:0px;}.cls-17{font-size:8px;}.cls-17,.cls-18{font-family:HelveticaNeue, 'Helvetica Neue';}.cls-17,.cls-14,.cls-4,.cls-10{fill:#000;}.cls-13{fill:#333;}.cls-19{letter-spacing:-.02em;}.cls-3{stroke-dasharray:0 0 .99 1.48;}.cls-18{font-size:10px;}.cls-18,.cls-16,.cls-11{fill:#fff;}.cls-4,.cls-10,.cls-11{stroke:#333;}.cls-4,.cls-11{stroke-linejoin:round;}.cls-20{letter-spacing:-.11em;}.cls-15{fill:#e6e6e6;}.cls-6{stroke-dasharray:0 0 1.03 1.55;}.cls-7{stroke-dasharray:0 0 1 1.5;}.cls-8{stroke-dasharray:0 0 .99 1.49;}.cls-9{stroke:#ccc;}</style></defs><g id="Layer_1-2"><path class="cls-15" d="M0,134.06V3.42s4.06.21,9.87,0S58.77,2,99.42.61s46.53,0,51.85,0h15.33s31.13.06,49.12,1.73,71.42,5.27,86.75,5.27h15.33s14.19-.73,24.85,0,31.65,3.72,45.31,3.39c13.66-.33,35.98-1.33,51.97,0,15.99,1.33,50.07,7.34,72.18,7.33h15.33s65.32,1.54,72.53,3.1v159.46H0v-46.84Z"/><path class="cls-16" d="M23.69,119.49s24.75-27.91,32.49-37.5c7.74-9.59,21.35-24.41,28.47-34.95,7.12-10.54,12.07-16.46,20.42-20.15s13-6.87,24.14-7.45c11.14-.58,28.78,2.72,46.41,2s69-2.35,76.74-2c7.74.35,17.6,6.65,35.89,4,13.41-1.94,24.75-1.3,39.3,0s33.11-.68,49.51,0c16.4.68,33.42-.24,50.44,1.92,17.02,2.17,73.86,7.67,83.81,8.28s23.25-.6,33.46,4.69c10.21,5.29,55.2,5.05,55.2,5.05v170.21H0v-79.54s16.61-6.55,23.69-14.57Z"/><path class="cls-12" d="M361.5,23.44h8.75s.29,6.74,3.22,10.81v12.78h-15.35v-12.78s2.65-2.04,3.38-10.81Z"/><polyline class="cls-5" points="405.15 94.77 405.52 95.11 405.52 95.61"/><line class="cls-8" x1="405.52" y1="97.1" x2="405.52" y2="113.73"/><polyline class="cls-5" points="405.52 114.47 405.52 114.97 405.02 114.97"/><line class="cls-7" x1="403.51" y1="114.97" x2="326.58" y2="114.97"/><polyline class="cls-5" points="325.82 114.97 325.32 114.97 325.32 114.47"/><line class="cls-2" x1="325.32" y1="112.94" x2="325.32" y2="95.82"/><polyline class="cls-5" points="325.32 95.05 325.32 94.55 325.68 94.2"/><polyline class="cls-3" points="326.75 93.17 358.83 62.18 370.75 62.18 404.61 94.26"/><polygon class="cls-14" points="281.06 31.53 281.06 38.33 281.06 43.39 285.48 43.39 285.48 31.53 281.06 31.53"/><polygon class="cls-14" points="372.44 47.04 372.44 62.18 337.21 62.18 335.89 60.13 370.68 60.28 370.68 47.04 372.44 47.04"/><polygon class="cls-12" points="515.51 18.34 512.11 18.34 512.11 39.87 511.31 40.23 511.31 42.1 512.07 42.76 512.07 44.38 512.07 53.99 515.51 53.99 515.51 42.85 516.38 42.16 516.38 40.13 515.49 39.75 515.51 18.34"/><polygon class="cls-12" points="527.44 18.34 524.05 18.34 524.05 39.87 523.25 40.23 523.25 42.1 524.01 42.76 524.01 44.38 524.01 53.99 527.44 53.99 527.44 42.85 528.32 42.16 528.32 40.13 527.43 39.75 527.44 18.34"/><path class="cls-12" d="M478.79,144h86.71s-2.34-52.37-38.05-101.15h-3.44s-2.72,6.21-3.13,7.94c0,0-3.15-5.9-5.37-7.94l-3.44-.1s-32.04,45.84-33.28,101.24Z"/><path class="cls-14" d="M317.8,28.78v-4.65l.87-.7v-2.03l-.89-.37.02-13.41h-3.39v13.53l-.8.35v1.87l.76.66v3.85h-.47s-1.86,2.67-2.77,6.15c0,0-2.83-3.97-5.26-6.64v-3.26l.87-.7v-2.03l-.89-.37.02-13.41h-3.39v13.53l-.8.35v1.87l.76.66v2.86h-.47s-39.73,60.26-41.15,132.04h98.72s1.72-65.71-41.73-130.15Z"/><path class="cls-12" d="M166.79,30.36h-.19v-3.23l.87-.7v-2.03l-.89-.37.02-23.41h-3.39v23.53l-.8.35v1.87l.76.66v3.33l-3.78,9.57s-2.63-6.89-4.72-9.41v-3.38l.87-.7v-2.03l-.89-.37.02-23.41h-3.39v23.53l-.8.35v1.87l.76.66v3.35s-23.92,35.25-32.31,87.67h-7.85V38.33h-2.71v117.55h89.2s2.8-65-30.76-125.53ZM111.07,153v-32.06h7.41c-1.49,10.12-2.39,20.84-2.42,32.06h-4.99Z"/><polygon class="cls-14" points="422.84 34.26 419.41 28.96 380.88 28.96 376.99 34.26 224.78 34.26 222.37 30.24 206.66 30.24 204.62 34.26 0 34.26 0 38.33 530.44 38.33 530.44 34.26 422.84 34.26"/><text class="cls-18" transform="translate(135.69 132.24)"><tspan x="0" y="0">Mina Iosif</tspan></text><text class="cls-17" transform="translate(3.25 30.33)"><tspan x="0" y="0">Old Exit</tspan></text><text class="cls-17" transform="translate(446.24 30.33)"><tspan x="0" y="0">New Exit</tspan></text><text class="cls-18" transform="translate(284.26 132.24)"><tspan x="0" y="0">Mina </tspan><tspan class="cls-20" x="24.64" y="0">T</tspan><tspan x="29.27" y="0">e</tspan><tspan class="cls-1" x="34.64" y="0">r</tspan><tspan x="37.79" y="0">ezia</tspan></text><text class="cls-18" transform="translate(496.58 132.24)"><tspan x="0" y="0">Mina Anton</tspan></text><text class="cls-17" transform="translate(213.66 192.25)"><tspan class="cls-19" x="0" y="0">V</tspan><tspan x="4.74" y="0">istor access a</tspan><tspan class="cls-1" x="54.22" y="0">r</tspan><tspan x="56.74" y="0">eas</tspan></text><rect class="cls-14" x="203" y="185.29" width="7.71" height="7.71"/><text class="cls-17" transform="translate(170.09 192.25)"><tspan x="0" y="0">Soil</tspan></text><rect class="cls-15" x="159.44" y="185.29" width="7.71" height="7.71"/><text class="cls-17" transform="translate(95.83 192.25)"><tspan x="0" y="0">Salt deposit</tspan></text><rect class="cls-9" x="85.17" y="185.29" width="7.71" height="7.71"/><text class="cls-17" transform="translate(313.74 192.25)"><tspan x="0" y="0">Restricted a</tspan><tspan class="cls-1" x="43.11" y="0">r</tspan><tspan x="45.63" y="0">eas</tspan></text><rect class="cls-12" x="303.03" y="185.29" width="7.71" height="7.71"/><text class="cls-17" transform="translate(466.04 192.25)"><tspan x="0" y="0">Planned mine</tspan></text><polyline class="cls-5" points="463.04 192.5 463.04 193 462.54 193"/><line class="cls-6" x1="461" y1="193" x2="456.61" y2="193"/><polyline class="cls-5" points="455.84 193 455.34 193 455.34 192.5"/><line class="cls-6" x1="455.34" y1="190.95" x2="455.34" y2="186.56"/><polyline class="cls-5" points="455.34 185.79 455.34 185.29 455.84 185.29"/><line class="cls-6" x1="457.38" y1="185.29" x2="461.77" y2="185.29"/><polyline class="cls-5" points="462.54 185.29 463.04 185.29 463.04 185.79"/><line class="cls-6" x1="463.04" y1="187.34" x2="463.04" y2="191.72"/><text class="cls-17" transform="translate(402.34 192.25)"><tspan x="0" y="0">Stai</tspan><tspan class="cls-19" x="13.78" y="0">r</tspan><tspan x="16.3" y="0">case</tspan></text><polygon class="cls-11" points="391.72 185.29 391.72 189.14 399.25 185.29 391.72 185.29"/><polygon class="cls-11" points="391.72 189.14 391.72 193 399.25 189.14 391.72 189.14"/><polygon class="cls-11" points="399.25 193 399.25 189.14 391.72 193 399.25 193"/><polygon class="cls-11" points="399.25 189.14 399.25 185.29 391.72 189.14 399.25 189.14"/><polygon class="cls-10" points="252.5 44.39 252.5 51.97 224.19 89.04 224.19 114.97 297.42 114.97 297.42 88.13 269.12 51.97 269.12 44.39 252.5 44.39"/><polygon class="cls-14" points="247.2 30.24 247.2 43.02 224.19 43.02 224.19 47.04 399.87 47.04 399.87 43.39 252.5 43.39 252.5 30.24 247.2 30.24"/><polygon class="cls-4" points="257.13 104.52 257.13 109.75 264.49 104.52 257.13 104.52"/><polygon class="cls-4" points="257.13 109.75 257.13 114.97 264.49 109.75 257.13 109.75"/><polygon class="cls-4" points="264.49 114.97 264.49 109.75 257.13 114.97 264.49 114.97"/><polygon class="cls-4" points="264.49 109.75 264.49 104.52 257.13 109.75 264.49 109.75"/><polygon class="cls-4" points="257.13 94.07 257.13 99.3 264.49 94.07 257.13 94.07"/><polygon class="cls-4" points="257.13 99.3 257.13 104.52 264.49 99.3 257.13 99.3"/><polygon class="cls-4" points="264.49 104.52 264.49 99.3 257.13 104.52 264.49 104.52"/><polygon class="cls-4" points="264.49 99.3 264.49 94.07 257.13 99.3 264.49 99.3"/><polygon class="cls-4" points="257.13 83.62 257.13 88.84 264.49 83.62 257.13 83.62"/><polygon class="cls-4" points="257.13 88.84 257.13 94.07 264.49 88.84 257.13 88.84"/><polygon class="cls-4" points="264.49 94.07 264.49 88.84 257.13 94.07 264.49 94.07"/><polygon class="cls-4" points="264.49 88.84 264.49 83.62 257.13 88.84 264.49 88.84"/><polygon class="cls-4" points="257.13 73.17 257.13 78.39 264.49 73.17 257.13 73.17"/><polygon class="cls-4" points="257.13 78.39 257.13 83.62 264.49 78.39 257.13 78.39"/><polygon class="cls-4" points="264.49 83.62 264.49 78.39 257.13 83.62 264.49 83.62"/><polygon class="cls-4" points="264.49 78.39 264.49 73.17 257.13 78.39 264.49 78.39"/><polygon class="cls-4" points="257.13 62.72 257.13 67.94 264.49 62.72 257.13 62.72"/><polygon class="cls-4" points="257.13 67.94 257.13 73.17 264.49 67.94 257.13 67.94"/><polygon class="cls-4" points="264.49 73.17 264.49 67.94 257.13 73.17 264.49 73.17"/><polygon class="cls-4" points="264.49 67.94 264.49 62.72 257.13 67.94 264.49 67.94"/><polygon class="cls-4" points="257.13 52.27 257.13 57.49 264.49 52.27 257.13 52.27"/><polygon class="cls-4" points="257.13 57.49 257.13 62.72 264.49 57.49 257.13 57.49"/><polygon class="cls-4" points="264.49 62.72 264.49 57.49 257.13 62.72 264.49 62.72"/><polygon class="cls-4" points="264.49 57.49 264.49 52.27 257.13 57.49 264.49 57.49"/><polygon class="cls-4" points="257.13 47.04 257.13 52.27 264.49 47.04 257.13 47.04"/><polygon class="cls-4" points="264.49 52.27 264.49 47.04 257.13 52.27 264.49 52.27"/><text class="cls-18" transform="translate(233.86 100.21)"><tspan x="0" y="0">Mina Rudolf</tspan></text><rect class="cls-14" x="249.73" y="147.51" width="14.76" height="5.42"/><polygon class="cls-4" points="242.37 147.51 242.37 152.93 249.73 147.51 242.37 147.51"/><polygon class="cls-4" points="242.37 152.93 242.37 158.36 249.73 152.93 242.37 152.93"/><polygon class="cls-4" points="249.73 158.36 249.73 152.93 242.37 158.36 249.73 158.36"/><polygon class="cls-4" points="249.73 152.93 249.73 147.51 242.37 152.93 249.73 152.93"/><polygon class="cls-4" points="242.37 136.66 242.37 142.09 249.73 136.66 242.37 136.66"/><polygon class="cls-4" points="242.37 142.09 242.37 147.51 249.73 142.09 242.37 142.09"/><polygon class="cls-4" points="249.73 147.51 249.73 142.09 242.37 147.51 249.73 147.51"/><polygon class="cls-4" points="249.73 142.09 249.73 136.66 242.37 142.09 249.73 142.09"/><polygon class="cls-4" points="242.37 125.82 242.37 131.24 249.73 125.82 242.37 125.82"/><polygon class="cls-4" points="242.37 131.24 242.37 136.66 249.73 131.24 242.37 131.24"/><polygon class="cls-4" points="249.73 136.66 249.73 131.24 242.37 136.66 249.73 136.66"/><polygon class="cls-4" points="249.73 131.24 249.73 125.82 242.37 131.24 249.73 131.24"/><polygon class="cls-4" points="242.37 114.97 242.37 120.4 249.73 114.97 242.37 114.97"/><polygon class="cls-4" points="242.37 120.4 242.37 125.82 249.73 120.4 242.37 120.4"/><polygon class="cls-4" points="249.73 125.82 249.73 120.4 242.37 125.82 249.73 125.82"/><polygon class="cls-4" points="249.73 120.4 249.73 114.97 242.37 120.4 249.73 120.4"/><path class="cls-13" d="M276.45,158.93s11.45-12.08,33.37-12.08,32.57,12.08,32.57,12.08h-65.94Z"/></g></svg>